<svg width="52" height="25" viewBox="0 0 52 25" fill="none" xmlns="http://www.w3.org/2000/svg">
<path d="M10.8482 22.92C11.7442 22.92 12.2882 22.664 12.4802 22.152C12.6722 21.6186 12.7682 20.9253 12.7682 20.072L12.7362 15.528C12.7362 12.7973 11.8722 11.432 10.1442 11.432C9.61084 11.432 9.07751 11.5493 8.54417 11.784C8.03217 12.0186 7.59484 12.296 7.23217 12.616V19.848C7.23217 20.1466 7.22151 20.5733 7.20017 21.128C7.17884 21.6613 7.14684 22.1733 7.10417 22.664C7.46684 22.6213 7.85084 22.6 8.25617 22.6C8.66151 22.5786 8.97084 22.568 9.18417 22.568V25H0.800172V22.92C1.69617 22.92 2.22951 22.664 2.40017 22.152C2.59217 21.6186 2.68817 20.9253 2.68817 20.072V6.91997C2.68817 6.53597 2.69884 6.09863 2.72017 5.60797C2.74151 5.09597 2.77351 4.6053 2.81617 4.13597C2.47484 4.1573 2.06951 4.17863 1.60017 4.19997C1.15217 4.19997 0.810839 4.21063 0.576172 4.23197V1.79997C2.06951 1.79997 3.21084 1.6933 4.00017 1.47997C4.78951 1.26663 5.29084 1.0533 5.50417 0.839966H7.23217V10.28C7.65884 9.93863 8.14951 9.63997 8.70417 9.38397C9.25884 9.10663 9.82417 8.8933 10.4002 8.74397C10.9762 8.5733 11.4775 8.48797 11.9042 8.48797C13.8668 8.48797 15.2535 9.0533 16.0642 10.184C16.8748 11.2933 17.2908 13.0853 17.3122 15.56V19.848C17.3122 20.1466 17.3015 20.5733 17.2802 21.128C17.2588 21.6613 17.2268 22.1733 17.1842 22.664C17.5255 22.6213 17.8988 22.6 18.3042 22.6C18.7095 22.5786 19.0295 22.568 19.2642 22.568V25H10.8482V22.92Z" fill="black"/>
<path d="M23.1712 8.07197C23.1712 5.49063 23.7365 3.6453 24.8672 2.53597C25.9978 1.4053 27.5232 0.839966 29.4432 0.839966C30.4458 0.839966 31.2458 0.989299 31.8432 1.28797C32.4405 1.5653 32.8672 1.9173 33.1232 2.34397C33.3792 2.77063 33.5072 3.20797 33.5072 3.65597C33.5072 4.21063 33.3365 4.7013 32.9952 5.12797C32.6538 5.55463 32.1632 5.77863 31.5232 5.79997C30.9045 5.8213 30.4245 5.6613 30.0832 5.31997C29.7418 4.9573 29.5712 4.5093 29.5712 3.97597C29.5712 3.8693 29.5712 3.76263 29.5712 3.65597C29.5925 3.5493 29.6138 3.44263 29.6352 3.33597C29.5285 3.2293 29.4005 3.1653 29.2512 3.14397C29.1232 3.1013 29.0058 3.07997 28.8992 3.07997C28.3658 3.1013 28.0138 3.3253 27.8432 3.75197C27.6938 4.1573 27.6192 4.59463 27.6192 5.06397V8.99997H31.2032V11.464L27.6512 11.56L27.6832 19.784C27.6832 20.0826 27.6725 20.52 27.6512 21.096C27.6298 21.6506 27.5978 22.1733 27.5552 22.664C27.9178 22.6213 28.3232 22.6 28.7712 22.6C29.2405 22.5786 29.5818 22.568 29.7952 22.568V25H21.2512V22.92C22.1472 22.92 22.6912 22.664 22.8832 22.152C23.0752 21.6186 23.1712 20.9253 23.1712 20.072V11.624L20.8352 11.656V8.99997H23.1712V8.07197Z" fill="black"/>
<path d="M32.9997 25V22.92C33.8743 22.92 34.4077 22.664 34.5997 22.152C34.7917 21.6186 34.8877 20.9253 34.8877 20.072V14.696C34.8877 14.312 34.8983 13.8853 34.9197 13.416C34.941 12.9253 34.973 12.4453 35.0157 11.976C34.6743 11.9973 34.269 12.0186 33.7997 12.04C33.3517 12.04 33.0103 12.0506 32.7757 12.072V9.63997C34.2477 9.63997 35.3783 9.5333 36.1677 9.31997C36.9783 9.10663 37.4903 8.8933 37.7037 8.67997H39.2717C39.3143 8.9573 39.3357 9.15997 39.3357 9.28797C39.3357 9.41597 39.3357 9.54397 39.3357 9.67197C39.357 9.77863 39.3997 9.9813 39.4637 10.28C39.8903 9.93863 40.381 9.63997 40.9357 9.38397C41.4903 9.10663 42.045 8.8933 42.5997 8.74397C43.1543 8.5733 43.645 8.48797 44.0717 8.48797C46.0343 8.48797 47.421 9.0533 48.2317 10.184C49.0637 11.2933 49.4797 13.0853 49.4797 15.56V19.848C49.4797 20.1466 49.469 20.5733 49.4477 21.128C49.4263 21.6613 49.3943 22.1733 49.3517 22.664C49.7143 22.6213 50.0983 22.6 50.5037 22.6C50.909 22.5786 51.2183 22.568 51.4317 22.568V25H43.0477V22.92C43.9437 22.92 44.4877 22.664 44.6797 22.152C44.8717 21.6186 44.9677 20.9253 44.9677 20.072L44.9357 15.528C44.9357 14.1413 44.733 13.1173 44.3277 12.456C43.9437 11.7733 43.2823 11.432 42.3437 11.432C41.8103 11.432 41.277 11.5493 40.7437 11.784C40.2317 12.0186 39.7943 12.296 39.4317 12.616V19.848C39.4317 20.1466 39.421 20.5733 39.3997 21.128C39.3783 21.6613 39.3463 22.1733 39.3037 22.664C39.645 22.6213 40.0183 22.6 40.4237 22.6C40.8503 22.5786 41.1703 22.568 41.3837 22.568V25H32.9997Z" fill="black"/>
</svg>
