<svg width="45" height="25" viewBox="0 0 45 25" fill="none" xmlns="http://www.w3.org/2000/svg">
<path d="M10.272 22.08C11.168 22.08 11.712 21.824 11.904 21.312C12.096 20.7787 12.192 20.0853 12.192 19.232L12.16 14.688C12.16 11.9573 11.296 10.592 9.568 10.592C9.03467 10.592 8.50133 10.7093 7.968 10.944C7.456 11.1787 7.01867 11.456 6.656 11.776V19.008C6.656 19.3067 6.64533 19.7333 6.624 20.288C6.60267 20.8213 6.57067 21.3333 6.528 21.824C6.89067 21.7813 7.27467 21.76 7.68 21.76C8.08533 21.7387 8.39467 21.728 8.608 21.728V24.16H0.224V22.08C1.12 22.08 1.65333 21.824 1.824 21.312C2.016 20.7787 2.112 20.0853 2.112 19.232V6.08C2.112 5.696 2.12267 5.25867 2.144 4.768C2.16533 4.256 2.19733 3.76533 2.24 3.296C1.89867 3.31733 1.49333 3.33867 1.024 3.36C0.576 3.36 0.234667 3.37067 0 3.392V0.960001C1.49333 0.960001 2.63467 0.853334 3.424 0.640001C4.21333 0.426667 4.71467 0.213333 4.928 0H6.656V9.44C7.08267 9.09867 7.57333 8.8 8.128 8.544C8.68267 8.26667 9.248 8.05333 9.824 7.904C10.4 7.73333 10.9013 7.648 11.328 7.648C13.2907 7.648 14.6773 8.21333 15.488 9.344C16.2987 10.4533 16.7147 12.2453 16.736 14.72V19.008C16.736 19.3067 16.7253 19.7333 16.704 20.288C16.6827 20.8213 16.6507 21.3333 16.608 21.824C16.9493 21.7813 17.3227 21.76 17.728 21.76C18.1333 21.7387 18.4533 21.728 18.688 21.728V24.16H10.272V22.08Z" fill="black"/>
<path d="M25.0375 24.256L21.1655 13.152C20.9735 12.5973 20.8242 12.1813 20.7175 11.904C20.6322 11.6267 20.5682 11.392 20.5255 11.2C20.4828 11.008 20.4295 10.784 20.3655 10.528L19.1175 10.592V8.16H26.7975V10.208C26.1362 10.2293 25.7522 10.4853 25.6455 10.976C25.5388 11.4667 25.5708 12.0427 25.7415 12.704L26.8295 16.608C26.9575 17.0773 27.0748 17.5787 27.1815 18.112C27.3095 18.624 27.4162 19.136 27.5015 19.648C27.6082 19.2 27.7148 18.7093 27.8215 18.176C27.9495 17.6427 28.1308 16.9813 28.3655 16.192L30.7015 8.16H34.1895L36.7495 16.992C36.8775 17.44 37.0055 17.9307 37.1335 18.464C37.2828 18.976 37.4108 19.4453 37.5175 19.872C37.6028 19.4453 37.7202 18.976 37.8695 18.464C38.0188 17.952 38.1575 17.4933 38.2855 17.088L39.5335 13.024C39.7042 12.448 39.8535 11.9787 39.9815 11.616C40.1095 11.232 40.2695 10.848 40.4615 10.464L38.6375 10.592V8.16H44.7175V10.208C44.2908 10.208 43.9175 10.3467 43.5975 10.624C43.2775 10.9013 42.9895 11.2427 42.7335 11.648C42.4988 12.032 42.3068 12.416 42.1575 12.8C42.0082 13.1627 41.9015 13.4507 41.8375 13.664L38.1895 24.256H34.7975L32.5895 17.44C32.5255 17.2053 32.4188 16.864 32.2695 16.416C32.1415 15.968 32.0028 15.488 31.8535 14.976C31.7255 14.4427 31.5975 13.952 31.4695 13.504C31.3628 14.1013 31.2028 14.784 30.9895 15.552C30.7762 16.32 30.5735 17.024 30.3815 17.664C30.1895 18.304 30.0508 18.7413 29.9655 18.976L28.2055 24.256H25.0375Z" fill="black"/>
</svg>